# xmcd
#
# Track frame offsets: 
#        150
#        14770
#        26905
#        39905
#        55605
#        65073
#        74908
#        89718
#        101686
#        116348
#        126993
#        139368
#
# Disc length: 2005 seconds
#
# Revision: 1
# Processed by: cddbd v1.5.2PL0 Copyright (c) Steve Scherf et al.
# Submitted via: ExactAudioCopy v1.0b3
#
DISCID=bb07d30c
DTITLE=Various Artist - Blues Volume1
DYEAR=2001
DGENRE=Blues
TTITLE0=01 Wandering Blues - John Lee Hooker
TTITLE1=02 Brown Skinned Woman - Howlin' Wolf
TTITLE2=03 C.C.Rider - Leadbelly
TTITLE3=04 Three Woman Blues - Memphis Slim
TTITLE4=05 Every Day I Have The Blues - Lowell Fulson
TTITLE5=06 Have A Ball - Jimmy Witherspoon
TTITLE6=07 Out On A Limb - Roosevelt Sykes
TTITLE7=08 Harmonica Hop - Sonny Terry
TTITLE8=09 Baby, Please Don't Go - Big Bill Broonzy
TTITLE9=10 Little School Girl - Smokey Hogg
TTITLE10=11 Overhead Blues - Champion Jack Dupree
TTITLE11=12 Jinx Blues - Big Joe Williams
EXTD=
EXTT0=
EXTT1=
EXTT2=
EXTT3=
EXTT4=
EXTT5=
EXTT6=
EXTT7=
EXTT8=
EXTT9=
EXTT10=
EXTT11=
PLAYORDER=
